<svg width="26" height="26" viewBox="0 0 26 26" fill="none" xmlns="http://www.w3.org/2000/svg">
<path d="M25 12H14V1C14 0.734784 13.8947 0.48043 13.7072 0.292893C13.5196 0.105357 13.2653 0 13 0C12.7348 0 12.4805 0.105357 12.2929 0.292893C12.1054 0.48043 12 0.734784 12 1V12H1.00004C0.734828 12 0.480475 12.1054 0.292938 12.2929C0.105402 12.4804 4.49301e-05 12.7348 4.49301e-05 13C-0.0048897 13.13 0.0180917 13.2595 0.0674401 13.3798C0.116789 13.5001 0.191357 13.6085 0.286121 13.6976C0.380886 13.7867 0.493643 13.8544 0.616796 13.8962C0.739948 13.938 0.870633 13.953 1.00004 13.94H12V25C12 25.2652 12.1054 25.5196 12.2929 25.7071C12.4805 25.8946 12.7348 26 13 26C13.2653 26 13.5196 25.8946 13.7072 25.7071C13.8947 25.5196 14 25.2652 14 25V14H25C25.2653 14 25.5196 13.8946 25.7072 13.7071C25.8947 13.5196 26 13.2652 26 13C26 12.7348 25.8947 12.4804 25.7072 12.2929C25.5196 12.1054 25.2653 12 25 12Z" fill="#3A4348"/>
</svg>
