<svg width="27" height="24" viewBox="0 0 27 24" fill="none" xmlns="http://www.w3.org/2000/svg">
<g clip-path="url(#clip0_102_2)">
<path fill-rule="evenodd" clip-rule="evenodd" d="M12.7046 8.29303C12.9156 8.10556 13.2016 8.00024 13.5 8.00024C13.7983 8.00024 14.0844 8.10556 14.2953 8.29303L20.6595 13.95C20.8644 14.1386 20.9778 14.3912 20.9752 14.6534C20.9727 14.9156 20.8543 15.1664 20.6458 15.3518C20.4372 15.5373 20.155 15.6424 19.86 15.6447C19.5651 15.647 19.2809 15.5462 19.0687 15.364L13.5 10.414L7.93121 15.364C7.71903 15.5462 7.43485 15.647 7.13988 15.6447C6.84491 15.6424 6.56275 15.5373 6.35416 15.3518C6.14558 15.1664 6.02726 14.9156 6.0247 14.6534C6.02214 14.3912 6.13553 14.1386 6.34046 13.95L12.7046 8.29303Z" fill="white"/>
</g>
<defs>
<clipPath id="clip0_102_2">
<rect width="27" height="24" fill="white"/>
</clipPath>
</defs>
</svg>
