<svg width="15" height="16" viewBox="0 0 15 16" fill="none" xmlns="http://www.w3.org/2000/svg">
<path d="M11.2163 7.63097L4.61279 2.47326C4.59554 2.45967 4.5748 2.45123 4.55296 2.4489C4.53113 2.44657 4.50908 2.45045 4.48934 2.46008C4.46961 2.46972 4.45299 2.48473 4.44141 2.50338C4.42982 2.52204 4.42373 2.54358 4.42383 2.56554V3.69787C4.42383 3.76965 4.45752 3.83849 4.51318 3.88244L9.78662 8.00011L4.51318 12.1178C4.45606 12.1617 4.42383 12.2306 4.42383 12.3024V13.4347C4.42383 13.5328 4.53662 13.587 4.61279 13.527L11.2163 8.36926C11.2724 8.32548 11.3178 8.26947 11.3491 8.20551C11.3803 8.14154 11.3965 8.0713 11.3965 8.00011C11.3965 7.92893 11.3803 7.85869 11.3491 7.79472C11.3178 7.73076 11.2724 7.67475 11.2163 7.63097Z" fill="black"/>
</svg>
