<svg width="33" height="33" viewBox="0 0 33 33" fill="none" xmlns="http://www.w3.org/2000/svg">
<g clip-path="url(#clip0_375_19)">
<path d="M16.5 0C7.38736 0 0 7.38736 0 16.5C0 25.6132 7.38736 33 16.5 33C25.6132 33 33 25.6132 33 16.5C33 7.38736 25.6132 0 16.5 0ZM16.5 30.97C8.53927 30.97 2.0625 24.4607 2.0625 16.4999C2.0625 8.5392 8.53927 2.06244 16.5 2.06244C24.4607 2.06244 30.9375 8.53923 30.9375 16.4999C30.9375 24.4606 24.4607 30.97 16.5 30.97ZM23.085 10.4625L13.4042 20.2042L9.04455 15.8446C8.64184 15.4419 7.98906 15.4419 7.58584 15.8446C7.18314 16.2473 7.18314 16.9001 7.58584 17.3028L12.69 22.4075C13.0927 22.8097 13.7455 22.8097 14.1487 22.4075C14.1951 22.3611 14.2349 22.3105 14.271 22.258L24.5443 11.9212C24.9465 11.5185 24.9465 10.8657 24.5443 10.4625C24.141 10.0598 23.4883 10.0598 23.085 10.4625Z" fill="white"/>
</g>
<defs>
<clipPath id="clip0_375_19">
<rect width="33" height="33" fill="white"/>
</clipPath>
</defs>
</svg>
