<svg width="11" height="7" viewBox="0 0 11 7" fill="none" xmlns="http://www.w3.org/2000/svg">
<path d="M5.04732 6.81083L0.0698205 0.567569C0.0239612 0.510049 -0.000182037 0.4448 -0.000183 0.378381C-0.000183962 0.311963 0.0239592 0.246715 0.0698176 0.189194C0.115677 0.131673 0.181636 0.0839068 0.261067 0.0506965C0.340497 0.0174863 0.430601 1.58454e-06 0.522321 -3.28279e-07L10.4773 -9.22486e-07C10.569 9.79388e-07 10.6591 0.0174856 10.7386 0.0506959C10.818 0.0839062 10.884 0.131672 10.9298 0.189193C10.9757 0.246714 10.9998 0.311962 10.9998 0.378381C10.9998 0.444799 10.9757 0.510048 10.9298 0.567568L5.95232 6.81083C5.90646 6.86834 5.84049 6.91611 5.76106 6.94931C5.68163 6.98252 5.59153 7 5.49982 7C5.4081 7 5.318 6.98252 5.23857 6.94931C5.15914 6.91611 5.09318 6.86834 5.04732 6.81083Z" fill="white"/>
</svg>
