<svg width="48" height="48" viewBox="0 0 48 48" fill="none" xmlns="http://www.w3.org/2000/svg">
<g clip-path="url(#clip0_376_21)">
<path d="M36.75 0H11.25C5.0368 0 0 5.0368 0 11.25V36.75C0 42.9632 5.0368 48 11.25 48H36.75C42.9632 48 48 42.9632 48 36.75V11.25C48 5.0368 42.9632 0 36.75 0Z" fill="#F4F2ED"/>
<path d="M7.80675 38.07H13.7726V23.5813L5.25 17.1895V35.5133C5.25 36.928 6.39638 38.07 7.80675 38.07Z" fill="#4285F4"/>
<path d="M34.2273 38.0702H40.1934C41.608 38.0702 42.7501 36.9238 42.7501 35.5135V17.1895L34.2273 23.5815" fill="#34A853"/>
<path d="M34.2273 12.5017V23.5813L42.7501 17.1894V13.7799C42.7501 10.6181 39.1407 8.81546 36.6138 10.7118" fill="#FBBC04"/>
<path d="M13.7727 23.5807V12.5014L23.9999 20.1714L34.2271 12.501V23.5805L23.9999 31.2512" fill="#EA4335"/>
<path d="M5.25 13.7799V17.189L13.7726 23.5811V12.5017L11.3863 10.7118C8.85506 8.81546 5.25 10.6181 5.25 13.7799Z" fill="#C5221F"/>
</g>
<defs>
<clipPath id="clip0_376_21">
<rect width="48" height="48" fill="white"/>
</clipPath>
</defs>
</svg>
