<svg width="257" height="300" viewBox="0 0 257 300" fill="none" xmlns="http://www.w3.org/2000/svg">
<g clip-path="url(#clip0_210_530)">
<path d="M75.21 65.41C75.2391 65.3868 75.2598 65.3546 75.2688 65.3185C75.2778 65.2823 75.2747 65.2442 75.26 65.21L50.08 0.910024C49.8533 0.330024 50.0233 0.166691 50.59 0.420024L86.71 16.42C87.29 16.6734 87.6967 17.0967 87.93 17.69L109.57 73.46C109.678 73.7345 109.851 73.9788 110.074 74.1721C110.297 74.3653 110.563 74.5019 110.85 74.57C125.89 78.0567 140.51 81.94 154.71 86.22C154.873 86.2686 155.049 86.2535 155.202 86.1776C155.356 86.1017 155.477 85.9706 155.54 85.81L174.71 37.09C174.843 36.7434 175.08 36.6467 175.42 36.8L199.49 48C199.579 48.0416 199.649 48.1151 199.686 48.2059C199.723 48.2967 199.724 48.3982 199.69 48.49L181.15 95.24C180.957 95.7334 181.103 96.0834 181.59 96.29C194.52 101.79 207.84 109.93 216.77 120.64C227.63 133.693 231.117 149.497 227.23 168.05C227.043 168.937 226.867 168.937 226.7 168.05C226.41 166.46 226.37 164.81 226.14 163.23C222.893 141.397 211.6 124.7 192.26 113.14C174.44 102.49 152.37 96.38 131.96 91.69C104.7 85.42 77.08 79.48 51.31 68.64C33.73 61.25 16.54 49.79 5.22001 34.87C4.48001 33.9034 4.54668 33.8434 5.42001 34.69C11.94 41.0367 19.7033 46.2134 28.71 50.22C42.87 56.52 58.2067 61.62 74.72 65.52C74.9 65.5667 75.0633 65.53 75.21 65.41Z" fill="white"/>
<path d="M169.83 124.29C169.712 124.25 169.583 124.257 169.47 124.309C169.356 124.361 169.267 124.454 169.22 124.57C158.12 152.29 147.003 180.033 135.87 207.8C135.823 207.92 135.793 208.047 135.78 208.18C135.767 208.38 135.713 208.497 135.62 208.53C135.51 208.573 135.387 208.571 135.279 208.524C135.17 208.477 135.084 208.389 135.04 208.28C120.56 172.9 106.177 137.79 91.89 102.95C91.8084 102.753 91.6845 102.576 91.5272 102.433C91.3698 102.289 91.183 102.182 90.98 102.12C69.84 95.88 48.42 88.45 30.4 76.77C22.1067 71.39 15.12 64.7167 9.44 56.75C9.38 56.67 9.39 56.6 9.47 56.54V56.53C9.57 56.45 9.66333 56.4567 9.75 56.55C18.51 66.5633 29.2367 74.5133 41.93 80.4C55.5633 86.72 70.3967 91.95 86.43 96.09C104.917 100.87 122.66 105.467 139.66 109.88C151.62 112.98 163.423 116.903 175.07 121.65C188.9 127.3 202.29 135.18 212.18 146.36C212.233 146.42 212.233 146.48 212.18 146.54H212.17C212.11 146.6 212.05 146.6 211.99 146.54C200.1 135.72 185 129.35 169.83 124.29ZM125.24 111.45C125.177 111.432 125.11 111.432 125.046 111.45C124.983 111.468 124.926 111.504 124.883 111.553C124.839 111.602 124.81 111.663 124.798 111.728C124.787 111.792 124.795 111.859 124.82 111.92L134.76 137.25C134.786 137.315 134.831 137.371 134.889 137.41C134.947 137.449 135.015 137.47 135.085 137.47C135.155 137.47 135.223 137.449 135.281 137.41C135.339 137.371 135.384 137.315 135.41 137.25L143.5 116.75C143.517 116.704 143.524 116.655 143.521 116.606C143.518 116.558 143.505 116.51 143.482 116.467C143.459 116.423 143.428 116.385 143.39 116.355C143.351 116.324 143.307 116.302 143.26 116.29L125.24 111.45Z" fill="white"/>
<path d="M253.02 234.25C253.042 234.289 253.048 234.334 253.037 234.377C253.026 234.42 252.998 234.457 252.96 234.48L252.2 234.95C251.483 235.387 250.758 235.795 250.066 236.15C249.375 236.505 248.731 236.801 248.17 237.019C247.61 237.237 247.145 237.374 246.802 237.423C246.458 237.471 246.244 237.429 246.17 237.3L246 237.03C245.923 236.903 245.987 236.692 246.19 236.407C246.393 236.123 246.729 235.772 247.18 235.373C247.632 234.975 248.189 234.537 248.82 234.086C249.452 233.634 250.145 233.177 250.86 232.74L251.62 232.28C251.659 232.258 251.704 232.252 251.747 232.263C251.79 232.274 251.827 232.302 251.85 232.34L253.02 234.25Z" fill="white"/>
<path d="M132.467 270.08C128.624 270.087 124.936 268.455 122.213 265.543C119.491 262.632 117.957 258.679 117.95 254.555C117.946 252.513 118.318 250.491 119.043 248.603C119.767 246.715 120.832 244.999 122.175 243.552C123.518 242.106 125.113 240.958 126.87 240.173C128.626 239.389 130.51 238.983 132.413 238.98C136.256 238.973 139.944 240.605 142.667 243.517C145.389 246.428 146.923 250.381 146.93 254.505C146.934 256.547 146.562 258.569 145.837 260.457C145.112 262.345 144.048 264.061 142.705 265.508C141.362 266.954 139.767 268.102 138.01 268.887C136.253 269.671 134.37 270.077 132.467 270.08ZM132.43 267.51C135.552 267.51 138.545 266.141 140.753 263.705C142.96 261.269 144.2 257.965 144.2 254.52C144.2 251.075 142.96 247.771 140.753 245.335C138.545 242.899 135.552 241.53 132.43 241.53C129.308 241.53 126.315 242.899 124.107 245.335C121.9 247.771 120.66 251.075 120.66 254.52C120.66 257.965 121.9 261.269 124.107 263.705C126.315 266.141 129.308 267.51 132.43 267.51Z" fill="white"/>
<path d="M256.5 242.29V243.35C256.013 244.21 255.057 244.267 253.63 243.52C250.68 241.96 248.12 241.2 244.66 241.86C238.41 243.05 234.63 248.25 234.68 254.61C234.76 265.66 245.61 270.74 254.78 265.08C255.087 264.893 255.397 264.883 255.71 265.05C256.07 265.243 256.333 265.61 256.5 266.15V266.96C248.39 272.29 237.67 270.34 233.53 261.51C229.6 253.14 233.18 243.03 242.23 239.92C247.223 238.2 251.98 238.99 256.5 242.29Z" fill="white"/>
<path d="M17.55 264.07C17.87 264.83 18.1867 264.83 18.5 264.07L28.18 240.42C28.4867 239.667 29.0333 239.403 29.82 239.63L30.16 239.73C30.2829 239.765 30.3969 239.826 30.4944 239.909C30.5919 239.991 30.6707 240.094 30.7256 240.209C30.7805 240.324 30.8102 240.45 30.8126 240.578C30.8151 240.706 30.7903 240.833 30.74 240.95L19.09 268.75C19.0334 268.892 18.9482 269.02 18.8397 269.127C18.7312 269.234 18.6019 269.316 18.46 269.37C17.62 269.677 17.0267 269.42 16.68 268.6C13.3067 260.553 9.49999 251.46 5.25999 241.32C5.19421 241.162 5.16677 240.994 5.17999 240.83C5.22666 240.11 5.46666 239.707 5.89999 239.62C6.78666 239.427 7.40332 239.75 7.74999 240.59L17.55 264.07Z" fill="white"/>
<path d="M51.8521 239.591L51.5521 239.59C50.9114 239.587 50.3903 240.105 50.388 240.746L50.292 268.265C50.2897 268.906 50.8073 269.427 51.4479 269.429L51.7479 269.43C52.3886 269.433 52.9097 268.915 52.912 268.274L53.008 240.755C53.0103 240.114 52.4927 239.593 51.8521 239.591Z" fill="white"/>
<path d="M75.17 240.77C75.17 240.431 75.3049 240.105 75.5449 239.865C75.785 239.625 76.1105 239.49 76.45 239.49L87.22 239.53C88.8735 239.535 90.5098 239.877 92.0354 240.537C93.5609 241.197 94.946 242.162 96.1114 243.377C97.2768 244.592 98.1997 246.032 98.8275 247.616C99.4552 249.201 99.7755 250.897 99.77 252.61L99.75 256.59C99.739 260.048 98.4022 263.36 96.0336 265.798C93.6651 268.236 90.4588 269.6 87.12 269.59L76.35 269.55C76.0105 269.55 75.685 269.415 75.4449 269.175C75.2049 268.935 75.07 268.609 75.07 268.27L75.17 240.77ZM77.68 242.28L77.8 266.8C77.8 266.842 77.8083 266.883 77.8245 266.921C77.8407 266.959 77.8645 266.994 77.8943 267.023C77.9242 267.052 77.9595 267.074 77.9983 267.089C78.0371 267.104 78.0785 267.111 78.12 267.11L86.8 267.06C89.5437 267.045 92.1688 265.897 94.0983 263.87C96.0278 261.843 97.1039 259.102 97.09 256.25L97.07 252.63C97.0632 251.216 96.7884 249.818 96.2614 248.514C95.7345 247.211 94.9657 246.028 93.9989 245.033C93.0321 244.039 91.8864 243.252 90.6271 242.718C89.3679 242.183 88.0198 241.912 86.66 241.92L77.98 241.97C77.8995 241.973 77.8232 242.006 77.7672 242.064C77.7113 242.122 77.68 242.199 77.68 242.28Z" fill="white"/>
<path d="M176.43 264.19C176.71 264.863 176.987 264.86 177.26 264.18L187.03 240.34C187.317 239.647 187.817 239.403 188.53 239.61C188.697 239.657 188.863 239.713 189.03 239.78C189.603 240.027 189.77 240.44 189.53 241.02L177.91 268.75C177.814 268.983 177.652 269.182 177.442 269.323C177.233 269.463 176.987 269.538 176.735 269.538C176.483 269.538 176.237 269.463 176.028 269.323C175.818 269.182 175.656 268.983 175.56 268.75L164.08 241.31C163.977 241.067 163.974 240.794 164.07 240.55C164.377 239.763 164.777 239.427 165.27 239.54C165.903 239.68 166.347 240.05 166.6 240.65L176.43 264.19Z" fill="white"/>
<path d="M210.66 239.58H210.34C209.677 239.58 209.14 240.117 209.14 240.78V268.28C209.14 268.943 209.677 269.48 210.34 269.48H210.66C211.323 269.48 211.86 268.943 211.86 268.28V240.78C211.86 240.117 211.323 239.58 210.66 239.58Z" fill="white"/>
<path d="M30.76 294.25C32.98 295.77 32.02 299.85 29.03 299.78C27.3567 299.733 25.76 299.727 24.24 299.76C23.7733 299.773 23.54 299.547 23.54 299.08L23.59 289.03C23.5967 288.637 23.7967 288.44 24.19 288.44C25.55 288.44 26.9433 288.437 28.37 288.43C31.19 288.42 32.4 291.09 30.62 293.21C30.28 293.61 30.3267 293.957 30.76 294.25ZM24.64 289.96L24.66 292.92C24.66 293.069 24.719 293.211 24.824 293.316C24.929 293.421 25.0715 293.48 25.22 293.48L28.41 293.45C28.9323 293.447 29.4323 293.246 29.7998 292.892C30.1674 292.538 30.3725 292.058 30.37 291.56V291.24C30.3688 290.993 30.3166 290.749 30.2165 290.521C30.1163 290.293 29.9701 290.087 29.7862 289.913C29.6024 289.74 29.3844 289.602 29.1448 289.509C28.9053 289.416 28.6488 289.369 28.39 289.37L25.2 289.4C25.0515 289.4 24.909 289.459 24.804 289.564C24.699 289.669 24.64 289.811 24.64 289.96ZM24.69 294.79L24.67 298.51C24.67 298.595 24.7037 298.676 24.7637 298.736C24.8237 298.796 24.9051 298.83 24.99 298.83L28.74 298.84C29.0276 298.841 29.3127 298.792 29.579 298.696C29.8452 298.599 30.0874 298.456 30.2917 298.276C30.496 298.096 30.6584 297.882 30.7696 297.646C30.8809 297.409 30.9388 297.156 30.94 296.9V296.44C30.9425 295.923 30.7143 295.426 30.3055 295.058C29.8966 294.691 29.3407 294.483 28.76 294.48L25.01 294.47C24.9251 294.47 24.8437 294.504 24.7837 294.564C24.7237 294.624 24.69 294.705 24.69 294.79Z" fill="white"/>
<path d="M63.68 298.85L68.72 298.89C68.8287 298.89 68.933 298.933 69.0099 299.01C69.0868 299.087 69.13 299.191 69.13 299.3C69.13 299.409 69.0868 299.513 69.0099 299.59C68.933 299.667 68.8287 299.71 68.72 299.71L62.7 299.78C62.3133 299.787 62.12 299.593 62.12 299.2L62.13 288.94C62.13 288.868 62.1443 288.797 62.172 288.731C62.1998 288.665 62.2405 288.605 62.2917 288.555C62.3429 288.504 62.4036 288.465 62.4703 288.438C62.537 288.412 62.6082 288.399 62.68 288.4L68.7 288.48C68.8333 288.48 68.9 288.547 68.9 288.68L68.91 289.08C68.91 289.24 68.83 289.32 68.67 289.32L63.68 289.4C63.5023 289.403 63.333 289.475 63.2092 289.6C63.0854 289.726 63.0174 289.895 63.02 290.07V292.95C63.02 293.403 63.2467 293.6 63.7 293.54C64.7133 293.42 65.65 293.407 66.51 293.5C69.1233 293.787 69.1267 294.103 66.52 294.45C65.66 294.563 64.7533 294.543 63.8 294.39C63.2933 294.31 63.0367 294.527 63.03 295.04L63.01 298.18C63.0087 298.267 63.025 298.354 63.0581 298.436C63.0912 298.517 63.1403 298.591 63.2027 298.653C63.265 298.715 63.3393 298.765 63.4213 298.799C63.5032 298.833 63.5912 298.85 63.68 298.85Z" fill="white"/>
<path d="M107.75 296.39C107.81 295.897 107.973 295.43 108.24 294.99C108.493 294.583 108.677 294.61 108.79 295.07C108.977 295.77 108.847 296.437 108.4 297.07C108.207 297.357 108.217 297.637 108.43 297.91C108.703 298.263 109.043 298.543 109.45 298.75C109.697 298.883 109.81 299.09 109.79 299.37C109.777 299.47 109.733 299.55 109.66 299.61C109.567 299.697 109.46 299.727 109.34 299.7C108.66 299.553 108.137 299.193 107.77 298.62C107.663 298.453 107.54 298.437 107.4 298.57C106.34 299.577 104.84 299.993 102.9 299.82C99.18 299.48 98.67 295.1 101.55 293.09C101.783 292.93 101.853 292.717 101.76 292.45C100.35 288.18 104.91 287.2 107.39 289.41C107.583 289.583 107.623 289.787 107.51 290.02C107.482 290.079 107.442 290.131 107.391 290.172C107.34 290.213 107.281 290.243 107.216 290.258C107.152 290.273 107.085 290.274 107.02 290.261C106.955 290.247 106.894 290.22 106.84 290.18C105.61 289.23 104.11 288.52 102.78 289.87C102.53 290.123 102.374 290.453 102.335 290.805C102.297 291.158 102.38 291.512 102.57 291.81C103.817 293.797 105.27 295.437 106.93 296.73C107.403 297.097 107.677 296.983 107.75 296.39ZM106.36 297.59L102.4 293.63C102.377 293.606 102.349 293.587 102.318 293.573C102.287 293.56 102.254 293.554 102.22 293.554C102.186 293.554 102.153 293.56 102.122 293.573C102.091 293.587 102.063 293.606 102.04 293.63L101.94 293.74C101.62 294.059 101.358 294.431 101.169 294.832C100.979 295.234 100.867 295.658 100.837 296.081C100.807 296.503 100.861 296.916 100.995 297.295C101.13 297.674 101.342 298.012 101.62 298.29L101.7 298.37C101.978 298.648 102.316 298.86 102.695 298.995C103.074 299.129 103.487 299.183 103.909 299.153C104.332 299.124 104.756 299.011 105.158 298.821C105.559 298.632 105.931 298.37 106.25 298.05L106.36 297.95C106.384 297.927 106.403 297.899 106.417 297.868C106.43 297.837 106.437 297.804 106.437 297.77C106.437 297.736 106.43 297.703 106.417 297.672C106.403 297.641 106.384 297.613 106.36 297.59Z" fill="white"/>
<path d="M146.65 297.95C147.76 295.15 144.34 294.65 142.55 293.98C140 293.02 140.01 289.62 142.52 288.64C144.193 287.987 145.877 288.213 147.57 289.32C147.61 289.348 147.643 289.384 147.666 289.426C147.689 289.468 147.7 289.514 147.7 289.56L147.69 290.06C147.69 290.116 147.675 290.171 147.647 290.219C147.618 290.267 147.577 290.307 147.528 290.333C147.478 290.36 147.423 290.373 147.367 290.37C147.311 290.368 147.257 290.351 147.21 290.32C145.57 289.24 143.3 288.37 141.91 290.37C141.785 290.552 141.699 290.758 141.659 290.975C141.618 291.192 141.623 291.415 141.674 291.63C141.725 291.845 141.82 292.046 141.954 292.222C142.088 292.398 142.257 292.544 142.45 292.65C143.457 293.203 144.527 293.657 145.66 294.01C148.5 294.9 148.95 299.06 145.8 299.7C143.3 300.2 141.4 299.68 140.1 298.14C140.067 298.093 140.07 298.047 140.11 298L140.29 297.79C140.557 297.49 140.837 297.473 141.13 297.74C142.51 299.007 144.13 299.293 145.99 298.6C146.141 298.543 146.278 298.456 146.392 298.344C146.506 298.232 146.594 298.098 146.65 297.95Z" fill="white"/>
<path d="M155.4 289.43L151.73 289.2C151.703 289.198 151.677 289.19 151.654 289.177C151.63 289.164 151.61 289.145 151.595 289.123C151.58 289.101 151.569 289.076 151.565 289.049C151.561 289.023 151.562 288.996 151.57 288.97L151.69 288.57C151.701 288.533 151.723 288.5 151.754 288.477C151.784 288.454 151.822 288.441 151.86 288.44L160.2 288.48C160.226 288.48 160.253 288.485 160.277 288.496C160.301 288.507 160.322 288.523 160.339 288.543C160.356 288.563 160.369 288.586 160.376 288.612C160.383 288.637 160.384 288.664 160.38 288.69L160.32 289.05C160.315 289.093 160.296 289.132 160.264 289.161C160.233 289.191 160.193 289.208 160.15 289.21L156.54 289.36C156.494 289.363 156.451 289.383 156.419 289.416C156.388 289.45 156.37 289.494 156.37 289.54L156.44 299.43C156.44 299.478 156.421 299.524 156.387 299.557C156.354 299.591 156.308 299.61 156.26 299.61L155.62 299.62C155.572 299.62 155.526 299.601 155.493 299.567C155.459 299.534 155.44 299.488 155.44 299.44L155.57 289.61C155.57 289.564 155.552 289.52 155.521 289.486C155.489 289.453 155.446 289.433 155.4 289.43Z" fill="white"/>
<path d="M202.61 290.1C197.6 293.81 202.2 301.65 208.24 298.16C208.5 298.013 208.65 298.087 208.69 298.38L208.75 298.82C208.759 298.9 208.74 298.981 208.697 299.05C208.653 299.118 208.587 299.171 208.51 299.2C204.777 300.52 202.097 299.94 200.47 297.46C198.7 294.76 199.4 290.53 202.51 288.98C204.457 288.02 206.5 288.103 208.64 289.23C208.677 289.249 208.71 289.276 208.736 289.309C208.763 289.342 208.782 289.38 208.793 289.421C208.805 289.462 208.807 289.506 208.802 289.548C208.796 289.591 208.782 289.633 208.76 289.67L208.63 289.9C208.599 289.954 208.556 290.001 208.506 290.039C208.456 290.076 208.398 290.103 208.337 290.118C208.275 290.133 208.211 290.136 208.148 290.126C208.085 290.116 208.025 290.093 207.97 290.06C206.017 288.88 204.23 288.893 202.61 290.1Z" fill="white"/>
<path d="M232.5 298.84L237.76 298.88C237.86 298.88 237.913 298.93 237.92 299.03V299.3C237.92 299.415 237.875 299.525 237.795 299.608C237.714 299.69 237.605 299.737 237.49 299.74L231.68 299.76C231.287 299.767 231.09 299.573 231.09 299.18L231.1 288.98C231.1 288.91 231.114 288.84 231.141 288.775C231.169 288.71 231.208 288.651 231.259 288.602C231.309 288.552 231.369 288.513 231.434 288.487C231.5 288.461 231.57 288.449 231.64 288.45L237.52 288.49C237.753 288.49 237.873 288.603 237.88 288.83L237.89 289.12C237.897 289.26 237.83 289.33 237.69 289.33L232.67 289.4C232.217 289.407 231.997 289.633 232.01 290.08L232.08 292.98C232.093 293.4 232.307 293.593 232.72 293.56C234.46 293.42 235.953 293.45 237.2 293.65C237.293 293.663 237.357 293.717 237.39 293.81C237.53 294.19 237.397 294.387 236.99 294.4L232.38 294.49C232.173 294.497 232.07 294.603 232.07 294.81L232.06 298.4C232.06 298.687 232.207 298.833 232.5 298.84Z" fill="white"/>
<path d="M37.11 297.43L36.54 299.39C36.4867 299.557 36.3767 299.64 36.21 299.64H35.67C35.4167 299.64 35.3367 299.52 35.43 299.28L39.66 288.9C39.7067 288.783 39.7875 288.683 39.8917 288.612C39.996 288.542 40.1191 288.504 40.245 288.504C40.3709 288.504 40.494 288.542 40.5983 288.612C40.7025 288.683 40.7833 288.783 40.83 288.9L45.05 299.21C45.15 299.457 45.07 299.603 44.81 299.65L44.49 299.7C44.3633 299.726 44.2314 299.703 44.119 299.637C44.0067 299.57 43.9217 299.465 43.88 299.34L43.18 297.17C43.0467 296.75 42.7567 296.543 42.31 296.55L38.22 296.59C37.9706 296.593 37.7284 296.676 37.5288 296.827C37.3291 296.978 37.1824 297.189 37.11 297.43ZM40.52 290.21C40.5087 290.174 40.4869 290.142 40.4576 290.119C40.4282 290.095 40.3925 290.081 40.355 290.078C40.3175 290.075 40.2799 290.083 40.247 290.101C40.2141 290.119 40.1873 290.147 40.17 290.18L38.21 294.78C37.97 295.353 38.16 295.637 38.78 295.63L41.79 295.59C42.37 295.583 42.52 295.327 42.24 294.82C41.5 293.487 40.9267 291.95 40.52 290.21Z" fill="white"/>
<path d="M50.52 298.86L57.3 298.9C57.3271 298.9 57.354 298.905 57.3789 298.916C57.4039 298.927 57.4264 298.942 57.4451 298.962C57.4638 298.982 57.4783 299.005 57.4877 299.03C57.4972 299.056 57.5014 299.083 57.5 299.11L57.48 299.51C57.4774 299.561 57.4552 299.61 57.418 299.645C57.3808 299.68 57.3314 299.7 57.28 299.7L48.61 299.74C48.5729 299.74 48.5365 299.73 48.5049 299.71C48.4733 299.691 48.4477 299.663 48.4311 299.629C48.4145 299.596 48.4075 299.559 48.4108 299.522C48.4141 299.485 48.4277 299.45 48.45 299.42L55.87 289.67C55.8923 289.64 55.9059 289.605 55.9092 289.568C55.9125 289.531 55.9055 289.494 55.8889 289.461C55.8723 289.427 55.8467 289.399 55.8152 289.38C55.7836 289.36 55.7471 289.35 55.71 289.35L49.32 289.24C49.2909 289.239 49.2622 289.232 49.2362 289.219C49.2101 289.206 49.1872 289.187 49.1691 289.164C49.151 289.141 49.1382 289.115 49.1314 289.086C49.1246 289.058 49.1242 289.029 49.13 289L49.22 288.62C49.2313 288.576 49.2573 288.537 49.2937 288.51C49.33 288.483 49.3746 288.469 49.42 288.47L57.61 288.52C57.6471 288.52 57.6836 288.53 57.7151 288.55C57.7467 288.569 57.7723 288.597 57.7889 288.631C57.8055 288.664 57.8125 288.701 57.8092 288.738C57.8059 288.775 57.7923 288.81 57.77 288.84L50.36 298.54C50.3377 298.57 50.3241 298.605 50.3208 298.642C50.3175 298.679 50.3245 298.716 50.3411 298.749C50.3577 298.783 50.3833 298.811 50.4149 298.83C50.4465 298.85 50.4829 298.86 50.52 298.86Z" fill="white"/>
<path d="M74.31 290.71L74.55 299.26C74.5529 299.344 74.5234 299.426 74.4676 299.49C74.4118 299.553 74.334 299.592 74.25 299.6L73.95 299.63C73.73 299.65 73.6167 299.55 73.61 299.33L73.5 289.99C73.4733 288.177 74 288 75.08 289.46L81.07 297.57C81.39 298.003 81.5467 297.953 81.54 297.42L81.44 289.01C81.44 288.777 81.5567 288.657 81.79 288.65H82.1C82.28 288.65 82.37 288.74 82.37 288.92L82.49 298.19C82.5233 300.183 81.95 300.377 80.77 298.77L74.73 290.57C74.4367 290.177 74.2967 290.223 74.31 290.71Z" fill="white"/>
<path d="M88.2896 288.58L88.0696 288.58C87.8266 288.579 87.6293 288.776 87.6289 289.019L87.6111 299.219C87.6106 299.462 87.8073 299.659 88.0503 299.66L88.2703 299.66C88.5133 299.661 88.7106 299.464 88.7111 299.221L88.7289 289.021C88.7293 288.778 88.5326 288.581 88.2896 288.58Z" fill="white"/>
<path d="M121.32 288.58L121.08 288.58C120.859 288.579 120.679 288.758 120.679 288.979L120.661 299.279C120.661 299.5 120.839 299.679 121.06 299.68L121.3 299.68C121.521 299.681 121.701 299.502 121.701 299.281L121.719 288.981C121.719 288.76 121.541 288.581 121.32 288.58Z" fill="white"/>
<path d="M134.31 297.32C134.743 297.913 134.96 297.843 134.96 297.11L135 288.88C135 288.627 135.123 288.507 135.37 288.52L135.63 288.53C135.743 288.537 135.8 288.593 135.8 288.7L135.87 298.11C135.89 300.083 135.313 300.273 134.14 298.68L128.56 291.08C128.093 290.447 127.86 290.523 127.86 291.31L127.88 299.46C127.88 299.647 127.79 299.737 127.61 299.73H127.32C127.193 299.73 127.13 299.663 127.13 299.53L127.12 289.31C127.12 288.13 127.47 288.017 128.17 288.97L134.31 297.32Z" fill="white"/>
<path d="M164.57 297.26L163.71 299.56C163.685 299.627 163.635 299.683 163.572 299.714C163.508 299.746 163.436 299.752 163.37 299.73L163.09 299.63C162.823 299.543 162.743 299.367 162.85 299.1L166.61 289.7C167.217 288.173 167.833 288.167 168.46 289.68L172.44 299.29C172.547 299.543 172.463 299.667 172.19 299.66L171.56 299.64C171.516 299.64 171.472 299.626 171.435 299.599C171.397 299.572 171.368 299.534 171.35 299.49L170.61 297.38C170.423 296.86 170.053 296.6 169.5 296.6L165.51 296.61C165.305 296.609 165.104 296.671 164.936 296.788C164.768 296.904 164.64 297.069 164.57 297.26ZM165.49 294.92C165.31 295.367 165.46 295.593 165.94 295.6L169.19 295.63C169.26 295.63 169.33 295.613 169.392 295.58C169.454 295.547 169.507 295.5 169.547 295.441C169.586 295.383 169.611 295.316 169.618 295.246C169.626 295.176 169.616 295.105 169.59 295.04L167.75 290.52C167.577 290.093 167.403 290.093 167.23 290.52L165.49 294.92Z" fill="white"/>
<path d="M177.87 298.81L183.21 298.91C183.239 298.91 183.268 298.916 183.294 298.928C183.321 298.939 183.344 298.957 183.363 298.979C183.382 299.001 183.396 299.026 183.404 299.054C183.412 299.082 183.414 299.111 183.41 299.14L183.33 299.56C183.321 299.606 183.296 299.647 183.259 299.676C183.222 299.705 183.177 299.721 183.13 299.72L176.7 299.76C176.647 299.76 176.596 299.739 176.559 299.701C176.521 299.664 176.5 299.613 176.5 299.56L176.52 288.77C176.52 288.742 176.526 288.714 176.537 288.689C176.548 288.663 176.565 288.64 176.585 288.621C176.606 288.602 176.631 288.588 176.657 288.579C176.684 288.57 176.712 288.567 176.74 288.57L177.54 288.66C177.589 288.665 177.635 288.688 177.669 288.725C177.702 288.762 177.72 288.81 177.72 288.86L177.67 298.61C177.67 298.636 177.675 298.662 177.685 298.687C177.695 298.711 177.71 298.733 177.729 298.751C177.747 298.77 177.769 298.785 177.793 298.795C177.818 298.805 177.844 298.81 177.87 298.81Z" fill="white"/>
<path d="M188.48 296.77L187.47 299.49C187.449 299.542 187.411 299.586 187.362 299.615C187.313 299.644 187.256 299.656 187.2 299.65L186.7 299.59C186.661 299.585 186.624 299.571 186.591 299.55C186.558 299.528 186.53 299.5 186.51 299.466C186.49 299.432 186.478 299.394 186.474 299.355C186.471 299.316 186.476 299.277 186.49 299.24L191.04 288.12C191.06 288.073 191.093 288.032 191.136 288.004C191.178 287.975 191.229 287.96 191.28 287.96C191.331 287.96 191.382 287.975 191.424 288.004C191.467 288.032 191.5 288.073 191.52 288.12L196.11 299.27C196.126 299.308 196.133 299.349 196.13 299.39C196.126 299.431 196.114 299.471 196.092 299.506C196.071 299.541 196.041 299.571 196.006 299.593C195.971 299.614 195.931 299.627 195.89 299.63L195.32 299.67C195.264 299.673 195.209 299.659 195.162 299.628C195.115 299.597 195.079 299.553 195.06 299.5L193.97 296.71C193.951 296.659 193.917 296.615 193.872 296.585C193.827 296.554 193.774 296.539 193.72 296.54L188.72 296.6C188.668 296.601 188.617 296.617 188.574 296.648C188.531 296.678 188.498 296.721 188.48 296.77ZM193.29 294.82C192.61 293.48 191.83 291.91 191.63 290.4C191.563 289.9 191.417 289.877 191.19 290.33C190.477 291.723 189.837 293.253 189.27 294.92C189.117 295.373 189.28 295.603 189.76 295.61L192.79 295.62C193.397 295.62 193.563 295.353 193.29 294.82Z" fill="white"/>
<path d="M213.82 288.57L213.58 288.57C213.337 288.571 213.141 288.768 213.141 289.011L213.159 299.251C213.159 299.494 213.357 299.691 213.6 299.69L213.84 299.69C214.083 299.689 214.279 299.492 214.279 299.249L214.261 289.009C214.261 288.766 214.063 288.569 213.82 288.57Z" fill="white"/>
<path d="M224.65 288.87C224.647 288.803 224.672 288.737 224.719 288.687C224.765 288.636 224.83 288.605 224.9 288.6L225.43 288.57C225.597 288.557 225.683 288.633 225.69 288.8C225.77 291.86 225.75 294.593 225.63 297C225.44 300.84 219.23 300.67 219.16 297.67C219.147 297.13 219.33 297.05 219.71 297.43C220.35 298.08 220.61 298.6 221.55 298.86C223.04 299.26 224.65 298.47 224.68 296.77C224.72 294.05 224.71 291.417 224.65 288.87Z" fill="white"/>
</g>
<defs>
<clipPath id="clip0_210_530">
<rect width="256" height="300" fill="white" transform="translate(0.5)"/>
</clipPath>
</defs>
</svg>
