<svg width="24" height="31" viewBox="0 0 24 31" fill="none" xmlns="http://www.w3.org/2000/svg">
<path d="M11.8971 3.78809C15.7724 3.78799 17.3225 3.84782 17.9784 7.42491L20.3035 17.7393C20.3887 18.2928 20.3483 19.1206 19.9968 19.9499C18.806 22.7586 14.9478 22.6281 11.8971 22.6281M11.9946 3.78809C8.11935 3.78799 6.56923 3.84782 5.91341 7.42491L3.58822 17.7393C3.50307 18.2928 3.54343 19.1206 3.89501 19.9499C5.0858 22.7586 8.94393 22.6281 11.9946 22.6281" stroke="white" stroke-width="1.3"/>
<circle cx="11.8968" cy="18.4554" r="1.1924" stroke="white" stroke-width="0.71544"/>
<circle cx="11.8968" cy="13.5667" r="1.1924" stroke="white" stroke-width="0.71544"/>
<circle cx="11.8968" cy="8.67805" r="1.1924" stroke="white" stroke-width="0.71544"/>
<path d="M11.9341 1C17.0125 0.999867 19.0439 1.07927 19.9033 5.82592L22.9503 19.5127C23.0628 20.2532 23.0081 21.3638 22.5368 22.4732C20.9739 26.1525 15.9316 26 11.9341 26V26M12.0659 1C6.9875 0.999867 4.95615 1.07927 4.09673 5.82592L1.04971 19.5127C0.937202 20.2532 0.991887 21.3638 1.46319 22.4732C3.02615 26.1525 8.06838 26 12.0659 26V26" stroke="white"/>
<path d="M5.00049 25C4.97879 26.6667 5.66466 30 8.58176 30H15.549M18.9995 25C19.0212 26.6667 18.3353 30 15.4182 30" stroke="white"/>
<path fill-rule="evenodd" clip-rule="evenodd" d="M19.2021 14.8738C18.531 15.1315 18.1139 15.8496 18.2445 16.5973C18.3915 17.4392 19.1773 18 20.0003 17.8512L19.8761 17.388C19.3362 17.4618 18.8144 17.0883 18.7137 16.5116C18.6249 16.0031 18.8966 15.5269 19.3265 15.3378L19.2021 14.8738Z" fill="white"/>
<path fill-rule="evenodd" clip-rule="evenodd" d="M4.81631 14.5702C5.50254 14.828 5.92897 15.546 5.79544 16.2935C5.64508 17.1353 4.8416 17.6961 3.99993 17.5475L4.12685 17.0846C4.6933 17.161 5.22444 16.7777 5.32591 16.2097C5.41564 15.7073 5.14011 15.2242 4.68938 15.0331L4.81631 14.5702Z" fill="white"/>
<path fill-rule="evenodd" clip-rule="evenodd" d="M18.2691 10.7C17.5979 10.9576 17.1808 11.6758 17.3114 12.4235C17.4584 13.2654 18.2443 13.8263 19.0673 13.6773L18.9431 13.2142C18.4032 13.2881 17.8813 12.9146 17.7806 12.3378C17.6918 11.8292 17.9636 11.353 18.3935 11.1639L18.2691 10.7Z" fill="white"/>
<path fill-rule="evenodd" clip-rule="evenodd" d="M5.7701 10.3963C6.45651 10.654 6.88308 11.3721 6.74953 12.1198C6.59915 12.9616 5.79549 13.5225 4.95372 13.3736L5.08063 12.9108C5.64719 12.9874 6.17851 12.6041 6.28 12.0359C6.36975 11.5334 6.09409 11.0502 5.64318 10.8592L5.7701 10.3963Z" fill="white"/>
<path fill-rule="evenodd" clip-rule="evenodd" d="M17.2198 6.0496C16.5486 6.30724 16.1315 7.0254 16.2621 7.7731C16.4091 8.615 17.1949 9.17588 18.018 9.02695L17.8938 8.56377C17.3539 8.63771 16.832 8.26418 16.7313 7.68738C16.6425 7.17881 16.9142 6.70258 17.3442 6.5135L17.2198 6.0496Z" fill="white"/>
<path fill-rule="evenodd" clip-rule="evenodd" d="M6.84237 5.74592C7.52877 6.00359 7.95534 6.72171 7.82179 7.46936C7.67142 8.31122 6.86776 8.87208 6.02598 8.72324L6.15289 8.2604C6.71946 8.33696 7.25077 7.95367 7.35227 7.38549C7.44202 6.88303 7.16635 6.39984 6.71544 6.20881L6.84237 5.74592Z" fill="white"/>
</svg>
