<svg width="32" height="32" viewBox="0 0 32 32" fill="none" xmlns="http://www.w3.org/2000/svg">
<path d="M7.9998 7.9998C7.9998 7.57546 8.16838 7.16849 8.46843 6.86843C8.76849 6.56838 9.17546 6.3998 9.5998 6.3998C10.0242 6.3998 10.4311 6.56838 10.7312 6.86843C11.0312 7.16849 11.1998 7.57546 11.1998 7.9998V16.075C11.7134 16.1342 12.2478 16.235 12.7998 16.379V14.3998H20.7998V19.2046C21.387 19.2126 21.923 19.1534 22.3998 19.0606V7.9998C22.3998 7.15111 22.0627 6.33718 21.4625 5.73706C20.8624 5.13695 20.0485 4.7998 19.1998 4.7998C18.3511 4.7998 17.5372 5.13695 16.9371 5.73706C16.3369 6.33718 15.9998 7.15111 15.9998 7.9998V8.7998C15.9998 9.01198 16.0841 9.21546 16.2341 9.36549C16.3841 9.51552 16.5876 9.5998 16.7998 9.5998C17.012 9.5998 17.2155 9.51552 17.3655 9.36549C17.5155 9.21546 17.5998 9.01198 17.5998 8.7998V7.9998C17.5998 7.57546 17.7684 7.16849 18.0684 6.86843C18.3685 6.56838 18.7755 6.3998 19.1998 6.3998C19.6242 6.3998 20.0311 6.56838 20.3312 6.86843C20.6312 7.16849 20.7998 7.57546 20.7998 7.9998V12.7998H12.7998V7.9998C12.7998 7.15111 12.4627 6.33718 11.8625 5.73706C11.2624 5.13695 10.4485 4.7998 9.5998 4.7998C8.75111 4.7998 7.93718 5.13695 7.33706 5.73706C6.73695 6.33718 6.3998 7.15111 6.3998 7.9998V8.7998C6.3998 9.01198 6.48409 9.21546 6.63412 9.36549C6.78415 9.51552 6.98763 9.5998 7.1998 9.5998C7.41198 9.5998 7.61546 9.51552 7.76549 9.36549C7.91552 9.21546 7.9998 9.01198 7.9998 8.7998V7.9998ZM20.9198 22.3998C19.1438 22.3998 17.0494 21.971 14.795 20.6718C9.3262 17.5182 6.2878 20.435 6.1758 20.5454C6.02415 20.6941 5.82022 20.7774 5.6078 20.7774C5.39539 20.7774 5.19146 20.6941 5.0398 20.5454C4.96421 20.4742 4.90397 20.3883 4.8628 20.2929C4.82163 20.1976 4.80039 20.0949 4.80039 19.991C4.80039 19.8872 4.82163 19.7844 4.8628 19.6891C4.90397 19.5937 4.96421 19.5078 5.0398 19.4366C5.2094 19.267 9.0158 15.4958 15.611 19.2766C21.3358 22.5742 25.7502 19.4686 25.9262 19.3406C26.0994 19.2195 26.3128 19.1701 26.5217 19.2029C26.7305 19.2358 26.9185 19.3482 27.0462 19.5166C27.3022 19.8638 27.2382 20.355 26.8702 20.6254C26.7262 20.7358 24.4062 22.3854 20.9198 22.3854V22.3998ZM14.795 25.4718C17.051 26.7726 19.1454 27.1998 20.9198 27.1998V27.1838C24.4078 27.1838 26.7246 25.5358 26.8686 25.4238C26.9537 25.3631 27.0258 25.2861 27.0808 25.1973C27.1359 25.1084 27.1726 25.0095 27.189 24.9063C27.2054 24.8031 27.2011 24.6976 27.1763 24.5961C27.1515 24.4946 27.1067 24.399 27.0446 24.315C26.9166 24.1468 26.7285 24.0347 26.5197 24.0022C26.3109 23.9697 26.0976 24.0193 25.9246 24.1406C25.7486 24.2686 21.3358 27.3742 15.611 24.0766C9.0158 20.2958 5.211 24.067 5.0398 24.2366C4.7198 24.5358 4.7198 25.0446 5.0398 25.3454C5.3598 25.6622 5.8718 25.6462 6.1758 25.3454C6.2878 25.2334 9.3262 22.3166 14.795 25.4718Z" fill="white"/>
</svg>
