<svg width="30" height="30" viewBox="0 0 30 30" fill="none" xmlns="http://www.w3.org/2000/svg">
<path d="M5.76875 26.25C5.19375 26.25 4.71375 26.0575 4.32875 25.6725C3.94292 25.2867 3.75 24.8063 3.75 24.2313V5.76875C3.75 5.19375 3.94292 4.71375 4.32875 4.32875C4.71375 3.94292 5.19375 3.75 5.76875 3.75H24.2313C24.8063 3.75 25.2863 3.94292 25.6713 4.32875C26.0571 4.71375 26.25 5.19375 26.25 5.76875V24.2313C26.25 24.8063 26.0575 25.2863 25.6725 25.6713C25.2867 26.0571 24.8063 26.25 24.2313 26.25H5.76875ZM5 19.375V24.2313C5 24.4554 5.07208 24.6396 5.21625 24.7837C5.36042 24.9279 5.54458 25 5.76875 25H8.125V21.9712H7.525C7.39 21.9712 7.27208 21.9208 7.17125 21.82C7.06958 21.7192 7.01875 21.6013 7.01875 21.4663V19.375H5ZM5 18.125H7.01875V17.5962C7.01875 17.3512 7.10208 17.1458 7.26875 16.98C7.43375 16.8133 7.63917 16.73 7.885 16.73V13.75C7.885 13.3358 8.02958 12.9837 8.31875 12.6937C8.60875 12.4046 8.96083 12.26 9.375 12.26H11.875C12.2892 12.26 12.6413 12.4046 12.9313 12.6937C13.2204 12.9837 13.365 13.3358 13.365 13.75V16.7313C13.6067 16.7313 13.8117 16.8142 13.98 16.98C14.1467 17.1458 14.23 17.3512 14.23 17.5962V18.125H25V5.76875C25 5.54458 24.9279 5.36042 24.7837 5.21625C24.6396 5.07208 24.4554 5 24.2313 5H5.76875C5.54458 5 5.36042 5.07208 5.21625 5.21625C5.07208 5.36042 5 5.54458 5 5.76875V18.125ZM10.6313 11.01C10.2188 11.01 9.86625 10.8654 9.57375 10.5763C9.28125 10.2879 9.135 9.9375 9.135 9.525C9.135 9.1125 9.27917 8.76 9.5675 8.4675C9.85667 8.17583 10.2071 8.03 10.6187 8.03C11.0312 8.03 11.3837 8.17375 11.6762 8.46125C11.9687 8.75042 12.115 9.10125 12.115 9.51375C12.115 9.92625 11.9708 10.2787 11.6825 10.5712C11.3933 10.8629 11.0429 11.01 10.6313 11.01ZM10.0475 25H11.2025V21.9712H10.0475V25ZM13.125 25H24.2313C24.4554 25 24.6396 24.9279 24.7837 24.7837C24.9279 24.6396 25 24.4554 25 24.2313V19.375H14.2313V21.4663C14.2313 21.6013 14.1804 21.7192 14.0787 21.82C13.9787 21.92 13.8612 21.97 13.7262 21.97H13.125V25ZM14.975 9.72875C14.695 9.37208 14.485 9.01583 14.345 8.66C14.205 8.30333 14.135 7.9375 14.135 7.5625V7.1875C14.1558 7.02917 14.2237 6.8975 14.3387 6.7925C14.4529 6.6875 14.5946 6.635 14.7637 6.635C14.8971 6.635 15.0113 6.6925 15.1063 6.8075C15.2004 6.92333 15.245 7.05 15.24 7.1875V7.5625C15.24 7.83583 15.2992 8.1025 15.4175 8.3625C15.535 8.62417 15.7163 8.89583 15.9613 9.1775C16.3029 9.59333 16.5492 9.985 16.7 10.3525C16.8508 10.72 16.9267 11.1025 16.9275 11.5C16.9275 11.6792 16.8658 11.8267 16.7425 11.9425C16.6192 12.0575 16.4708 12.115 16.2975 12.115C16.1475 12.115 16.0254 12.0542 15.9312 11.9325C15.8379 11.8108 15.7913 11.6667 15.7913 11.5C15.7913 11.2017 15.7321 10.9283 15.6138 10.68C15.4963 10.4317 15.2837 10.1146 14.9762 9.72875M18.1012 9.72875C17.8204 9.37208 17.61 9.01583 17.47 8.66C17.33 8.30333 17.26 7.9375 17.26 7.5625V7.1875C17.2808 7.02917 17.3487 6.8975 17.4637 6.7925C17.5779 6.6875 17.7196 6.635 17.8887 6.635C18.0221 6.635 18.1363 6.6925 18.2313 6.8075C18.3254 6.92333 18.37 7.05 18.365 7.1875V7.5625C18.365 7.83583 18.4242 8.1025 18.5425 8.3625C18.66 8.62417 18.8413 8.89583 19.0863 9.1775C19.4279 9.59333 19.6742 9.985 19.825 10.3525C19.9758 10.72 20.0517 11.1025 20.0525 11.5C20.0525 11.6792 19.9908 11.8267 19.8675 11.9425C19.7442 12.0575 19.5958 12.115 19.4225 12.115C19.2725 12.115 19.1504 12.0542 19.0562 11.9325C18.9629 11.8108 18.9163 11.6667 18.9163 11.5C18.9163 11.2017 18.8571 10.9283 18.7388 10.68C18.6213 10.4317 18.4087 10.1146 18.1012 9.72875ZM21.2888 9.72875C21.0079 9.37208 20.7975 9.01583 20.6575 8.66C20.5175 8.30333 20.4475 7.9375 20.4475 7.5625V7.1875C20.4683 7.02917 20.5362 6.8975 20.6512 6.7925C20.7654 6.6875 20.9071 6.635 21.0763 6.635C21.2096 6.635 21.3238 6.6925 21.4188 6.8075C21.5129 6.92333 21.5575 7.05 21.5525 7.1875V7.5625C21.5525 7.83583 21.6117 8.1025 21.73 8.3625C21.8475 8.62417 22.0288 8.89583 22.2738 9.1775C22.6154 9.59333 22.8617 9.985 23.0125 10.3525C23.1633 10.72 23.2392 11.1025 23.24 11.5C23.24 11.6792 23.1842 11.8267 23.0725 11.9425C22.96 12.0575 22.8125 12.115 22.63 12.115C22.4742 12.115 22.3475 12.0542 22.25 11.9325C22.1525 11.8108 22.1038 11.6667 22.1038 11.5C22.1038 11.2017 22.0446 10.9283 21.9263 10.68C21.8088 10.4317 21.5963 10.1146 21.2888 9.72875Z" fill="white"/>
</svg>
