<svg width="25" height="24" viewBox="0 0 25 24" fill="none" xmlns="http://www.w3.org/2000/svg">
<path d="M19.73 15.26L17.19 14.97C16.8913 14.9349 16.5886 14.968 16.3046 15.0667C16.0205 15.1654 15.7625 15.3273 15.55 15.54L13.71 17.38C10.8712 15.9362 8.56378 13.6288 7.12 10.79L8.97 8.94C9.4 8.51 9.61 7.91 9.54 7.3L9.25 4.78C9.19331 4.29218 8.9592 3.84224 8.59224 3.51585C8.22528 3.18946 7.75111 3.00942 7.26 3.01H5.53C4.4 3.01 3.46 3.95 3.53 5.08C4.06 13.62 10.89 20.44 19.42 20.97C20.55 21.04 21.49 20.1 21.49 18.97V17.24C21.5 16.23 20.74 15.38 19.73 15.26Z" fill="white"/>
</svg>
