<svg width="19" height="19" viewBox="0 0 19 19" fill="none" xmlns="http://www.w3.org/2000/svg">
<path d="M16.3459 9.81481L11.0022 15.1586C10.9178 15.2372 10.8061 15.28 10.6908 15.278C10.5754 15.276 10.4653 15.2292 10.3837 15.1476C10.3021 15.0661 10.2554 14.956 10.2534 14.8406C10.2513 14.7253 10.2942 14.6136 10.3728 14.5292L14.9558 9.94543H2.96875C2.85065 9.94543 2.73738 9.89852 2.65387 9.81501C2.57035 9.73149 2.52344 9.61823 2.52344 9.50012C2.52344 9.38202 2.57035 9.26875 2.65387 9.18524C2.73738 9.10173 2.85065 9.05481 2.96875 9.05481H14.9558L10.3728 4.47106C10.2942 4.38664 10.2513 4.27499 10.2534 4.15962C10.2554 4.04426 10.3021 3.93419 10.3837 3.8526C10.4653 3.77101 10.5754 3.72427 10.6908 3.72224C10.8061 3.7202 10.9178 3.76302 11.0022 3.84168L16.3459 9.18544C16.4293 9.26893 16.4762 9.38211 16.4762 9.50012C16.4762 9.61813 16.4293 9.73131 16.3459 9.81481Z" fill="white"/>
</svg>
