<svg width="105" height="98" viewBox="0 0 105 98" fill="none" xmlns="http://www.w3.org/2000/svg">
<path d="M33.4775 41.2295C32.0684 49.8369 29.2529 58.1442 25.1475 65.8078C19.4688 76.3007 12.2325 83.6902 5.65253 90.3683C5.24576 90.7816 4.92309 91.2724 4.70295 91.8125C4.48281 92.3526 4.3695 92.9315 4.3695 93.5161C4.3695 94.1007 4.48281 94.6796 4.70295 95.2197C4.92309 95.7599 5.24576 96.2506 5.65253 96.664C6.47404 97.4989 7.58824 97.9679 8.75003 97.9679C9.32529 97.9679 9.89492 97.8527 10.4264 97.629C10.9579 97.4053 11.4408 97.0774 11.8475 96.664L11.9438 96.5573C18.48 89.9148 26.5038 81.7605 32.8213 70.0939C39.2 58.2849 43.75 43.0969 43.75 22.3779C43.7488 17.4507 42.1369 12.6634 39.1675 8.76839C36.1981 4.87335 32.0395 2.09121 27.3451 0.8591C22.6507 -0.373007 17.6865 0.0147442 13.2326 1.96142C8.77859 3.90811 5.08721 7.30339 2.73838 11.6138C0.38956 15.9243 -0.483589 20.9056 0.25612 25.7752C0.99583 30.6448 3.30648 35.1266 6.82502 38.5166C10.3436 41.9065 14.8706 44.0125 19.6949 44.5035C24.5192 44.9946 29.3673 43.843 33.4775 41.2295ZM35 22.3779C35 25.9155 33.6172 29.3082 31.1558 31.8096C28.6944 34.311 25.356 35.7163 21.875 35.7163C18.3941 35.7163 15.0557 34.311 12.5943 31.8096C10.1328 29.3082 8.75003 25.9155 8.75003 22.3779C8.75003 18.8404 10.1328 15.4477 12.5943 12.9462C15.0557 10.4448 18.3941 9.03951 21.875 9.03951C25.356 9.03951 28.6944 10.4448 31.1558 12.9462C33.6172 15.4477 35 18.8404 35 22.3779ZM94.7275 41.2295C93.3187 49.837 90.5032 58.1443 86.3975 65.8078C80.7188 76.3007 73.4825 83.6902 66.9025 90.3683C66.081 91.2031 65.6195 92.3354 65.6195 93.5161C65.6195 94.6968 66.081 95.8291 66.9025 96.664C67.724 97.4989 68.8382 97.9679 70 97.9679C71.1618 97.9679 72.276 97.4989 73.0975 96.664L73.2025 96.5573C79.73 89.9148 87.7538 81.7605 94.0713 70.0939C100.45 58.2849 105 43.0969 105 22.3779C104.999 17.4507 103.387 12.6634 100.417 8.76839C97.4481 4.87335 93.2895 2.09121 88.5951 0.8591C83.9007 -0.373007 78.9365 0.0147442 74.4826 1.96142C70.0286 3.90811 66.3372 7.30339 63.9884 11.6138C61.6396 15.9243 60.7664 20.9056 61.5061 25.7752C62.2458 30.6448 64.5565 35.1266 68.075 38.5166C71.5936 41.9065 76.1206 44.0125 80.9449 44.5035C85.7692 44.9946 90.6173 43.843 94.7275 41.2295ZM83.125 35.7163C79.6441 35.7163 76.3057 34.311 73.8443 31.8096C71.3828 29.3082 70 25.9155 70 22.3779C70 18.8404 71.3828 15.4477 73.8443 12.9462C76.3057 10.4448 79.6441 9.03951 83.125 9.03951C86.606 9.03951 89.9444 10.4448 92.4058 12.9462C94.8672 15.4477 96.25 18.8404 96.25 22.3779C96.25 25.9155 94.8672 29.3082 92.4058 31.8096C89.9444 34.311 86.606 35.7163 83.125 35.7163Z" fill="white"/>
</svg>
