<svg width="19" height="19" viewBox="0 0 19 19" fill="none" xmlns="http://www.w3.org/2000/svg">
<path d="M7.25 0.75C8.97391 0.75 10.6272 1.43482 11.8462 2.65381C13.0652 3.87279 13.75 5.52609 13.75 7.25C13.75 8.86 13.16 10.34 12.19 11.48L12.46 11.75H13.25L18.25 16.75L16.75 18.25L11.75 13.25V12.46L11.48 12.19C10.3005 13.1968 8.80071 13.7499 7.25 13.75C5.52609 13.75 3.87279 13.0652 2.65381 11.8462C1.43482 10.6272 0.75 8.97391 0.75 7.25C0.75 5.52609 1.43482 3.87279 2.65381 2.65381C3.87279 1.43482 5.52609 0.75 7.25 0.75ZM7.25 2.75C4.75 2.75 2.75 4.75 2.75 7.25C2.75 9.75 4.75 11.75 7.25 11.75C9.75 11.75 11.75 9.75 11.75 7.25C11.75 4.75 9.75 2.75 7.25 2.75Z" fill="white"/>
</svg>
