<svg width="48" height="48" viewBox="0 0 48 48" fill="none" xmlns="http://www.w3.org/2000/svg">
<g opacity="0.22">
<mask id="mask0_103_6" style="mask-type:luminance" maskUnits="userSpaceOnUse" x="2" y="2" width="42" height="42">
<path d="M21 38C30.389 38 38 30.389 38 21C38 11.611 30.389 4 21 4C11.611 4 4 11.611 4 21C4 30.389 11.611 38 21 38Z" fill="#555555" stroke="white" stroke-width="4" stroke-linejoin="round"/>
<path d="M26.657 14.343C25.9149 13.599 25.0332 13.0091 24.0623 12.607C23.0915 12.2049 22.0508 11.9986 21 12C19.9492 11.9986 18.9085 12.2049 17.9377 12.607C16.9669 13.0091 16.0851 13.599 15.343 14.343M33.222 33.222L41.707 41.707" stroke="white" stroke-width="4" stroke-linecap="round" stroke-linejoin="round"/>
</mask>
<g mask="url(#mask0_103_6)">
<path d="M0 0H48V48H0V0Z" fill="black"/>
</g>
</g>
</svg>
